<svg width="338" height="115" viewBox="0 0 338 115" fill="none" xmlns="http://www.w3.org/2000/svg">
<g clip-path="url(#clip0_191_11261)">
<path d="M168.833 114.352C112.85 114.352 56.8671 114.352 0.884044 114.371C0.163356 114.371 0 114.207 0 113.485C0.0192184 75.951 0.0192184 38.4199 0 0.885473C0 0.164215 0.163356 0 0.884044 0C112.85 0.0193194 224.82 0.0193194 336.786 0C337.506 0 337.67 0.164215 337.67 0.885473C337.651 38.4199 337.651 75.951 337.67 113.485C337.67 114.21 337.506 114.371 336.786 114.371C280.803 114.352 224.82 114.352 168.836 114.352H168.833ZM30.5508 78.1309C31.5405 78.1374 32.479 77.8057 33.4528 77.6866C33.661 77.6608 33.8403 77.5739 33.7891 77.3259C33.7442 77.1166 33.5392 77.1585 33.3951 77.1778C32.8922 77.2454 32.3957 77.3259 31.8961 77.4354C31.0537 77.619 30.1888 77.6125 29.3689 77.2841C30.7173 77.1134 32.0658 77.1392 33.4079 76.6594C33.0139 76.3696 32.8442 75.9993 32.6808 75.6162C32.005 74.0513 31.9793 72.3995 31.8993 70.7316C31.8608 69.9073 31.9409 69.4501 32.825 69.3985C33.03 69.3857 33.2157 69.3406 33.2317 69.0894C33.251 68.7932 33.0556 68.703 32.8057 68.6934C32.5495 68.6837 32.1107 68.5099 32.1843 68.439C32.8121 67.8498 31.9569 67.399 31.8801 67.3475C31.1337 66.8516 31.6783 66.3429 31.7936 65.8567C31.8512 65.6119 32.0082 65.393 32.1075 65.1579C32.4182 64.427 32.4566 63.6736 31.8801 63.0972C31.0441 62.2632 30.9544 61.2425 30.9512 60.18C30.9512 59.771 30.823 59.5843 30.4034 59.6165C29.955 59.6519 29.7148 59.8709 29.9102 60.3055C30.0992 60.7273 29.8781 60.9753 29.6571 61.2458C29.3336 61.6418 29.0069 62.0378 28.6674 62.421C27.6776 63.5448 27.2933 64.2048 28.251 65.8148C28.3983 66.0595 28.5745 66.301 28.6546 66.5683C28.8147 67.1092 29.1959 67.6695 28.299 68.0655C28.078 68.1653 27.5719 68.7288 27.6008 69.1377C27.6232 69.4501 28.1549 69.5756 28.5521 69.6111C28.9268 69.6465 28.8564 69.9556 28.8628 70.2035C28.8852 71.4786 29.0165 72.7955 28.6257 73.9998C28.3215 74.94 28.5072 76.2602 27.1491 76.6594C27.053 76.6884 26.9505 76.9331 26.9666 77.0619C27.0402 77.6544 26.6751 77.8926 26.2491 78.1792C25.8903 78.4207 25.1664 78.7266 25.6149 79.2643C26.2074 79.9695 25.096 80.05 25.3138 80.5201C25.3618 80.6263 25.4803 80.7197 25.5892 80.7777C25.8903 80.9419 26.1786 81.1254 26.5406 81.1769C28.3407 81.4281 30.1472 81.4893 31.9601 81.3927C32.9499 81.3412 33.914 81.1512 34.8845 80.9773C35.1984 80.9226 35.3714 80.7229 35.2977 80.4492C35.1984 80.0661 34.9422 80.3784 34.7628 80.4074C32.8378 80.7165 30.9095 80.7068 28.9685 80.5008C30.7846 80.4879 32.5655 80.2947 34.3336 79.8503C34.9198 79.7055 35.4098 79.4865 35.3201 78.9391C35.2208 78.337 34.6443 78.0472 33.9941 78.1374C33.488 78.2082 32.9883 78.3209 32.4918 78.4175C31.8672 78.1728 31.1401 78.6139 30.5508 78.1245V78.1309ZM35.7141 47.1039C35.3362 47.1683 35.3073 47.178 35.4162 47.4775C35.8294 48.6012 36.0857 49.7636 36.3003 50.9356C36.3675 51.3027 36.5117 51.8597 36.2074 52.0046C35.618 52.288 35.4451 52.7162 35.2305 53.2733C34.8973 54.1427 34.939 54.3777 35.8903 54.5516C36.2682 54.6192 36.6014 54.6578 36.6142 55.1279C36.6782 57.4946 36.5277 59.8515 36.249 62.1956C36.0921 63.519 35.7686 64.8231 35.5027 66.2398C36.185 65.95 36.6494 65.4413 36.659 64.9197C36.6814 63.5705 37.2516 62.7269 38.4335 62.6786C39.9454 62.6174 40.5603 63.1841 40.5764 64.6524C40.5828 65.2996 41.1305 65.9243 41.8256 66.0659C40.9095 63.0682 40.7141 59.9932 40.7557 56.8892C40.7653 56.0971 41.0728 55.1537 39.8044 54.8671C40.6757 54.7512 41.422 54.6031 42.1202 54.2714C42.7096 53.9913 42.5719 53.6919 42.1459 53.3634C41.864 53.1477 41.6077 53.3151 41.3323 53.3312C40.586 53.3731 39.8397 53.7273 39.0805 53.4117C40.0126 53.1155 41.012 53.1091 42.0113 52.552C40.7269 52.362 40.8582 51.4734 40.9831 50.7038C41.1625 49.5897 41.4572 48.4917 41.9441 47.4646C42.2035 46.9172 42.1523 46.6113 41.4604 46.6725C40.9735 46.7143 40.7846 46.4117 40.445 46.0897C39.6122 45.2944 39.103 44.5441 39.5514 43.3882C39.561 43.3656 39.5322 43.327 39.5161 43.3012C38.7794 42.2677 39.4969 42.4383 40.1471 42.5896V41.321C39.8332 41.292 39.5738 41.6237 39.2983 41.3983C39.1382 41.2663 39.2727 41.1085 39.372 40.9894C39.8749 40.3969 39.34 40.1361 39.0101 39.7948C38.5488 39.3182 38.3791 39.9139 38.0972 40.0427C37.3253 40.3969 38.1196 40.9636 37.9274 41.3564C37.7384 41.8909 37.1811 40.8509 37.1363 41.5625C37.1203 41.833 36.5405 42.8344 37.732 42.4705C37.889 42.4222 37.9306 42.7603 37.873 42.8505C37.5527 43.3463 37.8409 43.8229 37.873 44.3026C37.9306 45.1301 36.7199 46.5533 35.8871 46.6049C35.381 46.6371 35.4162 46.8077 35.6981 47.1039L35.7173 47.0943L35.7141 47.1039ZM20.4868 60.225C20.5316 60.2862 20.5733 60.3442 20.6181 60.4054C20.4355 60.8207 19.6796 60.7563 19.7949 61.4454C19.9583 62.4307 19.5034 63.2743 19.023 64.0664C18.3599 65.1612 18.1549 66.3203 18.2767 67.5729C18.3055 67.8691 18.3824 68.0945 18.5553 68.3489C18.7827 68.6773 19.9455 68.5324 19.1447 69.4533C19.0454 69.566 19.4778 69.6529 19.6828 69.6722C20.4996 69.7495 21.3164 69.8139 22.1331 69.8815C20.964 69.8912 19.8013 70.1198 18.6098 69.962C19.6892 70.9248 21.1306 70.5255 22.242 70.9151C21.1338 70.7863 19.8718 71.1341 18.6995 70.7412C17.9307 70.4837 17.5271 70.8539 17.3606 71.3627C17.194 71.8682 17.6969 72.1805 18.187 72.3222C19.3401 72.6539 20.5412 72.5927 21.8 72.7891C20.3747 73.2141 19.0646 72.7344 17.745 72.6378C17.5239 72.6217 17.2485 72.3287 17.1236 72.6732C17.0179 72.963 17.3958 73.0692 17.5784 73.2077C17.7674 73.3526 18.0332 73.4331 18.2767 73.4588C20.4547 73.7036 22.6296 73.871 24.7949 73.3461C25.2914 73.227 26.2299 73.1948 26.0473 72.7279C25.8199 72.158 26.185 71.514 25.8391 71.1888C25.2657 70.6446 24.7532 70.1005 24.3144 69.4307C24.0326 69.0025 23.5201 68.7964 24.3849 68.526C24.5995 68.4583 24.6123 68.2329 24.6091 68.0365C24.5707 65.789 25.4419 63.6929 25.7078 61.5066C25.8615 60.2444 26.0793 58.892 25.4483 57.633C24.2568 55.2535 19.9326 54.4389 17.9243 56.5479C16.7744 57.7522 15.7719 59.0755 14.638 60.2927C14.3465 60.6082 14.1735 61.2586 14.2824 61.6611C14.401 62.0926 14.5483 62.6786 15.4676 62.5659C16.294 62.4661 16.6047 61.835 17.2229 61.5871C18.3151 61.1492 19.3913 60.6758 20.474 60.2186L20.4868 60.225ZM275.184 13.4592C273.135 13.4592 271.341 13.501 269.55 13.4495C265.799 13.3401 262.433 14.4091 259.416 16.6244C256.857 18.5016 255.082 20.9809 253.891 23.9013C253.013 26.0587 252.737 28.2965 252.741 30.6309C252.776 54.1845 252.766 77.7381 252.744 101.288C252.744 102.11 252.904 102.377 253.782 102.367C259.384 102.322 264.986 102.345 270.588 102.345C282.308 102.345 294.031 102.316 305.751 102.361C309.3 102.374 312.487 101.366 315.312 99.2921C317.846 97.431 319.896 95.132 321.043 92.1085C321.722 90.315 322.199 88.4732 322.269 86.5767C322.375 83.7207 322.301 80.8582 322.289 77.9989C322.289 77.7767 322.433 77.4773 321.994 77.2937C318.746 85.5818 312.731 90.9493 304.348 93.5639C295.867 96.2107 288.042 94.5009 280.7 89.2975V94.6748C278.865 93.6895 277.35 92.6076 275.87 91.3808C273.913 89.758 272.446 87.7777 270.88 85.8458C269.842 84.5643 269.608 83.1507 269.611 81.5247C269.659 61.8608 269.662 42.1936 269.605 22.5297C269.598 20.8553 269.989 19.4772 270.998 18.215C271.258 17.8898 271.511 17.5613 271.76 17.2297C272.728 15.9289 273.897 14.8115 275.184 13.4528V13.4592ZM322.122 57.4881C322.401 57.1822 322.289 56.8184 322.289 56.4996C322.295 42.493 322.285 28.4865 322.318 14.4799C322.318 13.6009 322.064 13.4399 321.248 13.4431C308.09 13.4689 294.928 13.4721 281.77 13.4367C280.835 13.4367 280.697 13.7522 280.697 14.5765C280.723 24.5357 280.713 34.4948 280.716 44.454C280.716 44.7599 280.626 45.0851 280.847 45.4586C288 40.2681 295.918 39.0639 304.291 41.3661C312.827 43.7134 318.596 49.3643 322.122 57.4881ZM296.69 51.1127C287.644 50.9711 280.803 58.5861 280.578 66.8258C280.319 76.3632 287.92 83.9944 296.69 83.8784C301.796 83.8108 306.04 81.9111 309.287 78.176C312.766 74.1737 313.861 69.2504 312.901 64.0503C311.789 58.0452 305.87 51.0354 296.69 51.1127ZM164.903 63.7412C164.996 65.1998 164.865 66.6616 165.083 68.1331C165.589 71.5559 166.867 74.5407 169.259 77.0941C171.642 79.6346 174.644 80.5233 177.93 80.7648C179.298 80.8646 180.681 80.8067 182.056 80.7712C182.523 80.7616 182.789 80.8968 183.045 81.2993C184.086 82.9286 185.172 84.5256 186.236 86.1388C187.046 87.3656 187.02 87.3302 188.321 86.5091C188.814 86.2 188.897 86.039 188.555 85.5431C187.504 84.0169 186.543 82.4263 185.483 80.9033C185.031 80.2561 184.999 79.9791 185.832 79.6636C188.644 78.6042 190.707 76.6594 192.068 73.9837C193.446 71.2757 193.955 68.3424 194.07 65.3447C194.128 63.8507 194.061 62.3566 193.916 60.8529C193.478 56.3354 191.995 52.3717 188.314 49.5318C187.373 48.8041 186.229 48.1987 185.086 47.9154C183.795 47.5966 182.462 47.3615 181.107 47.2263C178.33 46.9462 175.678 47.2488 173.097 48.2438C169.564 49.609 167.392 52.2622 166.047 55.7268C165.044 58.3156 164.778 60.9946 164.897 63.738L164.903 63.7412ZM34.5962 51.5023C34.3528 51.5023 34.2215 51.4798 34.0998 51.5056C33.0684 51.7148 32.8474 51.2544 32.8666 50.2755C32.9275 47.1297 32.8634 43.9806 32.905 40.8348C32.9146 40.0137 32.7193 39.7143 31.8448 39.7304C28.5168 39.7819 25.1889 39.7754 21.8609 39.7304C21.1402 39.7207 20.948 39.901 20.9576 40.6287C20.9993 43.9034 20.9384 47.1812 20.9993 50.4526C21.0185 51.3768 20.711 51.541 19.8782 51.5313C16.6463 51.4894 13.4144 51.5249 10.1825 51.5184C9.72129 51.5184 9.41379 51.5056 9.4202 52.1528C9.45543 55.6206 9.44903 59.0884 9.4234 62.5563C9.4202 63.1294 9.60918 63.2614 10.1377 63.2389C11.1274 63.1938 12.1204 63.1938 13.1133 63.2163C13.6803 63.2292 13.7507 63.1165 13.4977 62.5756C12.9147 61.3359 12.809 60.2927 13.6835 59.5392C15.1184 58.3028 15.9448 56.5254 17.4439 55.3501C17.5752 55.2471 17.6713 55.0796 17.7097 54.8671C17.8955 53.8207 18.4336 53.5341 19.4009 53.9237C20.8968 54.5258 20.9672 54.484 20.9672 52.9481C20.9672 52.8515 20.98 52.7549 20.9672 52.6583C20.8583 51.9016 21.1594 51.6537 21.9314 51.6601C25.2593 51.6955 28.5873 51.6923 31.9153 51.6569C32.5943 51.6504 32.7897 51.863 32.7737 52.5263C32.7161 55.1247 32.7096 57.7232 32.6712 60.3216C32.6648 60.7467 32.652 61.1878 32.9627 61.4872C33.4079 61.9187 33.7122 62.4275 34.0005 62.962C34.2856 63.49 34.6667 63.3644 34.9262 62.9587C35.0863 62.7076 35.1504 62.3631 35.1696 62.054C35.2913 60.2411 35.5123 58.438 35.4963 56.6155C35.4899 56.0038 35.3938 55.6592 34.7052 55.4564C33.6481 55.144 33.1645 54.0267 33.5969 53.2185C33.8884 52.6744 34.2151 52.1463 34.5898 51.4991L34.5962 51.5023ZM63.5039 63.226C64.8363 63.226 65.9574 63.1874 67.0721 63.2421C67.7223 63.2743 67.8728 63.0489 67.8696 62.4307C67.844 59.0594 67.8344 55.6882 67.8792 52.317C67.8888 51.586 67.6262 51.4959 67.0016 51.5023C63.7697 51.5313 60.5378 51.4895 57.3059 51.5345C56.5628 51.5442 56.3963 51.3059 56.3995 50.6136C56.4219 47.2746 56.3835 43.9356 56.4059 40.5965C56.4091 39.9525 56.2938 39.7239 55.5827 39.7304C52.2227 39.7722 48.8627 39.7883 45.5027 39.7207C44.5962 39.7046 44.4681 40.0073 44.4809 40.8058C44.5353 44.0805 44.5193 47.3551 44.5385 50.6297C44.5417 51.161 44.5385 51.541 43.7922 51.5152C42.7769 51.4766 42.7544 51.5764 43.2381 52.4973C44.0389 54.0171 43.8018 54.7544 42.2452 55.5497C41.9313 55.7107 41.707 55.8331 41.6878 56.2871C41.5981 58.4283 42.0338 60.5309 42.1106 62.6561C42.1234 63.0328 42.3444 63.1906 42.7801 63.0843C43.4079 62.933 44.5994 61.3746 44.6026 60.5567C44.6122 57.9228 44.6442 55.2889 44.593 52.6583C44.577 51.834 44.846 51.6537 45.618 51.6665C48.7217 51.7084 51.8255 51.7084 54.9293 51.6698C56.6109 51.6504 56.4571 52.185 56.2201 53.3248C56.0503 54.1523 56.3386 54.1716 56.9472 54.2135C57.3412 54.2392 57.607 54.0171 57.9305 53.9044C58.8979 53.5663 59.3751 53.8239 59.5577 54.8253C59.6025 55.07 59.705 55.2278 59.8588 55.3952C61.0343 56.6832 62.1842 57.9937 63.3885 59.2526C63.853 59.7388 64.1829 60.2605 64.0932 60.9077C63.9907 61.6482 64.0612 62.4307 63.4975 63.226H63.5039ZM110.832 76.3568C110.832 77.2905 110.832 78.015 110.832 78.7395C110.832 80.0435 110.832 80.0178 112.158 80.0468C112.761 80.0596 113.068 80.0017 113.046 79.2514C112.898 74.2574 113.315 69.2472 112.799 64.2628C112.517 61.5452 111.277 59.3235 108.632 58.3028C105.868 57.2305 102.988 57.2241 100.112 57.9615C97.3634 58.6666 95.5953 60.2669 95.07 63.1745C94.7785 64.8005 94.7145 64.7973 96.3672 64.8166C96.9374 64.8231 97.2225 64.807 97.2897 64.0471C97.4243 62.5369 98.1193 61.2264 99.5607 60.5664C102.232 59.3428 104.971 59.2043 107.703 60.4021C109.987 61.4003 110.49 63.4804 110.675 65.6506C110.832 67.4956 110.749 67.502 108.882 67.502C108.465 67.502 108.049 67.5052 107.632 67.502C104.843 67.4698 102.053 67.4408 99.3141 68.0913C97.7894 68.4519 96.2648 68.8769 95.2782 70.255C94.0194 72.0131 93.7824 73.945 94.2821 76.0283C94.6696 77.6415 95.5697 78.8747 96.9983 79.5928C99.9515 81.0804 103.052 80.9194 106.143 80.079C108.129 79.538 109.516 78.1406 110.832 76.36V76.3568ZM37.6584 88.7663C37.7801 88.7502 37.9018 88.7341 38.0235 88.718C39.4969 88.5119 40.9703 88.3219 42.4405 88.0869C42.7576 88.0353 43.1901 87.9259 43.0363 87.4203C42.8986 86.9599 42.5655 87.2658 42.322 87.2948C40.8102 87.4686 39.3015 87.4461 37.7865 87.2465C39.4905 87.1466 41.2266 87.3205 42.8826 86.5767C42.2003 86.4833 41.7263 86.097 41.5853 85.5142C41.4444 84.9314 41.2618 84.355 41.1593 83.7657C40.7525 81.4345 40.7045 79.0808 40.7557 76.7206C40.7814 75.5904 40.7685 75.6097 41.864 75.1139C42.133 74.9915 42.668 74.8853 42.4341 74.4119C42.2868 74.1125 41.9921 73.7583 41.4988 73.9579C41.0888 74.1221 40.6596 74.1737 40.2112 73.9772C40.8262 73.8903 41.3291 73.5715 42.0306 73.2656C40.8198 72.8277 40.9159 72.0872 41.076 71.1534C41.2586 70.0844 41.5437 69.0733 41.9505 68.0848C42.0209 67.9142 42.1683 67.721 42.0145 67.5535C41.8448 67.37 41.6654 67.5342 41.5117 67.6373C40.9639 67.9947 40.6372 67.8079 40.5635 67.1993C40.4931 66.6165 40.1279 66.2495 39.6763 66.0241C39.199 65.789 38.7923 65.7246 39.3464 65.0807C39.5578 64.8327 39.6154 64.1598 39.1126 63.8957C38.6866 63.6736 38.2541 63.7991 37.8954 64.1662C37.495 64.5751 37.6712 64.8842 38.0011 65.2127C38.2061 65.4155 38.4848 65.6892 38.0011 65.847C37.037 66.1625 36.7967 66.9804 36.4636 67.9721C37.1875 67.6405 37.8345 67.5568 38.4367 67.9077C39.0453 68.2619 39.7308 67.0673 40.3489 67.985C38.6769 68.571 37.1299 68.4905 35.6597 67.5632C35.5347 67.4827 35.3169 67.4441 35.2369 67.6179C35.1824 67.7371 35.1888 67.9593 35.2657 68.0591C35.9063 68.9027 35.8935 69.9652 36.1914 70.9151C36.4604 71.7716 36.6494 72.7247 35.4643 73.2463C34.9582 73.4685 35.144 74.1801 34.9037 74.6373C34.8173 74.8048 35.381 75.2105 35.8422 75.2555C36.5437 75.3264 36.6686 75.7707 36.659 76.434C36.627 78.3209 36.5886 80.2078 36.3291 82.0753C36.1657 83.2506 35.9896 84.4258 35.6885 85.585C35.4835 86.3706 34.8205 86.229 34.3913 86.5413C33.882 86.9148 34.4841 87.7327 33.8371 88.2543C32.7737 89.1076 32.825 89.172 33.8147 90.1991C33.3471 90.6724 32.62 90.6467 32.0722 91.0524C33.2926 92.0892 34.7916 92.0473 36.1465 92.1407C38.6129 92.3114 41.1177 92.3822 43.5552 91.7672C44.0613 91.6384 45.0254 91.7189 44.9005 91.0588C44.7564 90.2925 43.7442 90.5436 43.2477 90.7079C41.4444 91.3003 39.6443 90.959 37.8409 90.9655C38.9812 90.8206 40.1279 90.7497 41.2714 90.6402C42.1907 90.5533 43.0747 90.3343 43.8659 89.8224C44.2567 89.5712 44.3335 89.1816 44.1734 88.8178C44.0196 88.4668 43.7762 88.2704 43.2637 88.4604C41.4604 89.1204 39.5674 88.8339 37.6584 88.7791V88.7663ZM127.744 80.607C128.593 80.5748 129.436 80.6263 130.291 80.4428C133.709 79.7055 136.191 77.957 137.149 74.4184C137.706 72.3609 137.61 72.2353 135.515 72.3093C135.089 72.3254 134.939 72.3963 134.894 72.8793C134.769 74.1769 134.304 75.3393 133.372 76.3085C131.675 78.0697 129.589 78.6171 127.226 78.498C124.506 78.3627 121.985 76.7077 120.874 74.1576C119.737 71.5494 119.673 68.8415 120.166 66.1336C120.502 64.2886 121.265 62.5176 122.809 61.323C125.121 59.536 127.725 59.1528 130.496 60.0737C132.76 60.8272 134.416 62.2246 134.724 64.7104C134.887 66.0434 135.634 65.9919 136.604 65.9855C137.283 65.979 137.517 65.7955 137.424 65.129C137.043 62.4114 135.883 60.1735 133.398 58.8437C131.056 57.5912 128.568 57.2885 125.919 57.6362C122.466 58.0903 119.657 60.1993 118.401 63.4353C117.19 66.5586 117.395 69.7753 117.853 72.9694C118.138 74.9593 119.176 76.6852 120.64 78.0601C122.62 79.9244 125.003 80.8099 127.748 80.6038L127.744 80.607ZM58.1996 55.2278C57.796 55.1698 57.8633 55.7719 57.37 55.5658C55.2656 54.69 52.133 56.2163 51.5308 58.3994C51.1721 59.7066 51.4315 60.9077 51.6461 62.1312C51.9793 64.0503 52.6679 65.905 52.6679 67.882C52.6679 68.2136 52.6519 68.5292 53.0651 68.6419C53.6705 68.8093 53.5904 69.0025 53.1003 69.2633C52.2835 69.7012 52.2803 70.8411 51.4155 71.2629C51.2874 71.3241 51.3418 71.5591 51.4379 71.704C51.5981 71.9519 51.5725 72.1483 51.3643 72.3834C50.8101 73.0016 51.4027 73.1723 51.8031 73.2656C53.2925 73.6102 54.8172 73.7325 56.3322 73.6102C57.4565 73.52 58.6256 73.6295 59.6954 73.1079C59.9292 72.992 60.2624 72.9308 60.1214 72.6152C60.0253 72.3963 59.7435 72.554 59.5257 72.612C58.1964 72.963 56.8287 72.8213 55.477 72.9179C56.6653 72.6217 57.9017 72.6474 59.0644 72.2804C59.5257 72.1355 60.1759 71.9487 59.9196 71.2951C59.7339 70.825 59.3175 70.4289 58.6096 70.6801C57.9946 70.899 57.3156 70.8765 56.6589 70.7316C57.3188 70.5609 58.0042 70.5641 58.7858 70.1327C57.9273 69.8397 57.2002 70.0844 56.486 69.9041C56.8383 69.5402 57.2483 69.7173 57.607 69.6658C57.8953 69.6239 58.1708 69.5756 57.9914 69.2247C57.7672 68.7803 57.9337 68.6837 58.3437 68.6258C58.6865 68.5742 58.9459 68.307 58.9523 67.9689C58.9747 66.9868 59.1477 66.0015 58.7569 65.0259C58.2476 63.7541 57.2034 62.6689 57.418 61.1363C57.4565 60.8529 57.0817 60.7853 56.912 60.605C56.5628 60.2315 56.0696 59.9288 56.2425 59.0723C56.691 60.2701 57.5654 60.6114 58.5007 60.9785C59.2854 61.2876 60.2784 61.352 60.762 62.1634C61.3066 63.0811 61.9984 62.4661 62.5814 62.3888C62.9978 62.3341 63.2476 60.8046 62.8793 60.4794C61.7069 59.4394 60.9574 58.0226 59.7114 57.0277C59.1285 56.5608 58.1996 56.2227 58.19 55.231L58.1996 55.2278ZM219.8 56.8957C219.8 40.0298 219.8 23.164 219.8 6.29813C219.8 6.04054 219.788 5.78294 219.8 5.52857C219.823 5.20336 219.698 5.10032 219.365 5.07135C218.41 4.99085 218.753 5.69923 218.753 6.10815C218.74 39.9686 218.74 73.8259 218.74 107.686C218.74 107.912 218.747 108.137 218.74 108.359C218.727 108.768 219.022 108.707 219.269 108.707C219.518 108.707 219.807 108.765 219.794 108.356C219.784 108.099 219.794 107.841 219.794 107.587C219.794 90.6885 219.794 73.7905 219.794 56.8924L219.8 56.8957ZM87.2578 64.9937C87.2578 60.2733 87.277 55.5497 87.2385 50.8294C87.2321 50.0985 87.4243 49.9246 88.1354 49.9407C90.4704 49.989 92.8119 49.8924 95.1437 49.989C96.1398 50.0308 96.0822 49.5736 96.1174 48.8749C96.159 48.0731 95.9893 47.7994 95.0988 47.8091C89.1444 47.8574 83.1899 47.8349 77.2354 47.8349C75.8869 47.8349 75.9189 47.8349 75.8997 49.2226C75.8901 49.8054 76.0278 49.9858 76.6364 49.9761C79.0035 49.9375 81.3769 50.0051 83.744 49.9375C84.6377 49.9117 84.9195 50.0952 84.9131 51.0644C84.8715 59.9932 84.8875 68.9252 84.8875 77.854C84.8875 78.4014 84.9067 78.9456 84.8811 79.4929C84.8619 79.9051 85.0028 80.0822 85.4256 80.0435C85.7107 80.0178 86.0086 79.9985 86.2872 80.0435C87.0912 80.1788 87.2834 79.8632 87.277 79.0615C87.2353 74.3733 87.2578 69.6819 87.2578 64.9937ZM143.033 67.9238C143.017 67.9238 143.001 67.9238 142.981 67.9238C142.981 70.3613 142.991 72.7988 142.981 75.2362C142.972 77.1424 144.583 79.4929 146.402 80.0918C148.158 80.6682 149.948 80.4847 151.739 80.2367C153.068 80.0532 152.315 79.0518 152.35 78.4754C152.389 77.78 151.687 78.0955 151.338 78.1696C150.291 78.3982 149.224 78.4304 148.218 78.205C146.389 77.7928 145.38 76.434 145.361 74.4345C145.313 69.8461 145.336 65.2545 145.304 60.6629C145.3 60.1027 145.48 59.9642 146.011 59.9739C147.962 60.0029 149.916 59.9385 151.867 60.0061C152.696 60.0351 152.623 59.5907 152.6 59.0659C152.578 58.5604 152.799 57.9969 151.863 58.0323C149.916 58.1063 147.959 58.0355 146.008 58.0677C145.47 58.0774 145.281 57.9325 145.304 57.3722C145.345 56.3161 145.316 55.2535 145.316 54.1942C145.316 52.6132 145.316 52.6486 143.757 52.639C143.135 52.6357 143.01 52.8483 143.026 53.415C143.065 54.7609 143.023 56.11 143.045 57.4591C143.055 57.9164 142.921 58.0806 142.453 58.0613C141.559 58.0291 140.659 58.0967 139.766 58.042C138.811 57.984 139.192 58.6666 139.154 59.082C139.112 59.5263 138.968 60.0705 139.794 59.9997C140.557 59.932 141.332 60.0318 142.097 59.9739C142.821 59.9192 143.081 60.1059 143.061 60.898C143.004 63.2389 143.039 65.5862 143.039 67.9271L143.033 67.9238ZM48.4719 78.2179C48.8595 77.8282 49.3624 77.8733 49.798 77.7284C50.0222 77.6544 50.4033 77.6769 50.272 77.3002C50.1887 77.0619 49.878 77.1682 49.673 77.2132C48.4815 77.4644 47.2932 77.3549 46.0984 77.2358C47.37 77.1456 48.6321 77.0523 49.9613 76.6852C49.4168 76.3052 49.1285 75.8287 48.9876 75.262C48.6353 73.8227 48.3534 72.377 48.4431 70.8861C48.4719 70.4289 48.4655 70.0232 47.8761 69.8944C48.3085 69.4436 48.8274 69.7012 49.2182 69.4662C49.42 69.3438 49.7884 69.3921 49.7179 69.0186C49.6602 68.7159 49.372 68.6805 49.1125 68.6612C48.6128 68.629 48.0939 68.8157 47.5558 68.5807C47.9882 68.1814 48.5328 68.41 48.9395 68.1653C48.962 67.8111 48.6417 67.7017 48.4687 67.6083C47.5622 67.1285 47.9786 66.5232 48.2477 65.9178C48.2861 65.8309 48.3534 65.7568 48.3982 65.6731C49.0613 64.4335 49.0132 63.8024 48.0651 62.7269C47.4181 61.9928 47.2676 61.1685 47.4245 60.2444C47.4629 60.0093 47.4245 59.7807 47.1939 59.6648C46.9825 59.5617 46.7551 59.5843 46.5597 59.7292C46.3579 59.8741 46.2202 60.0898 46.3899 60.2991C46.7358 60.7241 46.3803 60.927 46.1689 61.1846C45.7813 61.6547 45.4066 62.1377 44.9998 62.5885C44.1061 63.5737 44.0325 64.5687 44.7339 65.7279C45.5539 67.0834 45.5699 67.5857 44.4777 68.5485C43.6193 69.3052 44.2887 69.4694 44.7403 69.537C45.3874 69.6368 45.4162 69.9652 45.3842 70.4579C45.3137 71.5688 45.3649 72.6989 45.1695 73.784C44.9806 74.8498 45.0414 76.1475 43.6417 76.5854C43.4527 76.6465 43.4335 76.843 43.4559 76.9879C43.5744 77.722 43.0908 78.0891 42.5494 78.279C41.3899 78.688 42.5815 79.7377 41.9601 80.2786C41.8896 80.3398 41.9313 80.5974 41.9953 80.7262C42.0818 80.9033 42.2868 80.9419 42.4822 80.9837C45.3265 81.5891 48.1676 81.5891 51.0183 81.0063C51.4732 80.9129 51.88 80.8614 52.1426 80.1884C49.8588 80.6392 47.6743 80.7777 45.477 80.5072C47.306 80.4138 49.1253 80.3205 50.9094 79.8407C51.4668 79.6926 51.8575 79.4092 51.8063 78.9327C51.755 78.4626 51.2842 78.1438 50.7525 78.1309C50.5026 78.1245 50.2528 78.2307 50.003 78.2468C49.5033 78.279 48.9876 78.5527 48.4751 78.2082L48.4719 78.2179ZM159.147 64.031C159.147 58.9596 159.147 53.8883 159.147 48.8137C159.147 48.5304 159.195 48.057 159.067 47.9959C158.449 47.6996 157.754 47.822 157.104 47.8896C156.607 47.9411 156.841 48.4627 156.841 48.7622C156.828 58.8727 156.831 68.9864 156.831 79.0969C156.831 79.2257 156.844 79.3545 156.831 79.4833C156.774 79.9244 156.995 80.0532 157.392 80.0113C157.549 79.9952 157.712 80.0113 157.872 80.0113C158.729 80.0113 159.158 79.5971 159.16 78.7685C159.16 73.8581 159.16 68.9445 159.16 64.0342L159.147 64.031ZM26.6142 70.1552C25.6373 69.1281 26.3195 68.5163 26.957 67.8176C27.258 67.4891 27.6937 67.077 27.3061 66.4813C26.8064 65.7118 26.5566 64.8392 26.4669 63.9183C26.2523 64.0052 26.2042 64.1276 26.1722 64.3047C25.932 65.6119 25.8327 66.9353 25.6949 68.2523C25.6021 69.1281 25.7654 69.6916 26.6174 70.1552H26.6142ZM21.0601 75.0398C22.9788 75.0398 24.8942 75.0398 26.8128 75.0398C27.0787 75.0398 27.0402 74.8337 27.1299 74.676C27.7289 73.6263 27.6776 72.4832 27.7161 71.3369C27.7417 70.6157 27.4246 70.4128 26.7488 70.3838C27.242 71.0504 27.1363 71.8006 27.2933 72.4832C27.4694 73.2495 27.1107 73.7293 26.3932 74.0577C25.0095 74.6921 23.5425 74.5922 22.0883 74.6599C21.7392 74.676 21.3516 74.5504 21.0537 75.0398H21.0601ZM50.9479 64.324C50.5571 64.9873 50.65 65.7085 50.1984 66.169C49.7179 66.6584 49.7307 67.1446 50.208 67.5471C51.0087 68.2201 51.0952 69.0508 50.8165 70.0425C51.755 69.4726 51.8031 66.5522 50.9479 64.324ZM56.2874 75.0495C56.297 74.9561 56.3034 74.8627 56.313 74.7693C54.1189 74.4152 51.6686 75.1557 49.8108 73.2302C49.8108 75.0623 49.8108 75.0591 51.4059 75.0527C53.0331 75.0462 54.6602 75.0527 56.2874 75.0527V75.0495ZM34.7276 69.6529C34.1991 69.9524 33.7474 70.2776 33.2798 70.5706C32.8666 70.8282 32.8794 71.353 33.3599 71.6235C33.6706 71.7974 34.0645 71.8521 34.4265 71.9004C34.9966 71.9777 35.3169 71.9004 35.0415 71.147C34.8813 70.709 34.6507 70.2196 34.7244 69.6529H34.7276ZM43.4687 70.577C42.873 70.6382 42.1202 70.4708 42.1202 71.4625C42.1202 71.6589 42.1106 72.0904 42.3861 71.8779C42.9434 71.4496 44.0933 72.3448 44.2022 71.0343C44.2535 70.4193 43.7922 70.6253 43.4687 70.577ZM49.5866 72.2385C50.4482 72.0067 50.0734 71.3369 50.2112 70.8765C50.2624 70.709 50.5827 70.4901 50.1663 70.3935C49.8909 70.3291 49.6282 70.4869 49.5994 70.7606C49.5513 71.2274 49.5866 71.704 49.5866 72.2385Z" fill="#1D272F"/>
<path d="M275.184 13.4596C273.896 14.8184 272.727 15.939 271.76 17.2366C271.513 17.5682 271.257 17.8967 270.998 18.2219C269.989 19.4841 269.598 20.8622 269.604 22.5365C269.662 42.2005 269.659 61.8677 269.611 81.5316C269.608 83.1609 269.841 84.5744 270.879 85.8527C272.445 87.7846 273.912 89.7649 275.87 91.3877C277.349 92.6145 278.864 93.6964 280.7 94.6817V89.3044C288.041 94.5078 295.866 96.2176 304.348 93.5708C312.727 90.953 318.746 85.5855 321.994 77.3006C322.432 77.4842 322.288 77.7836 322.288 78.0058C322.298 80.8651 322.372 83.7276 322.269 86.5836C322.199 88.4801 321.721 90.3219 321.042 92.1154C319.899 95.1389 317.846 97.4379 315.312 99.299C312.49 101.373 309.303 102.38 305.751 102.368C294.031 102.319 282.308 102.351 270.588 102.351C264.986 102.351 259.383 102.329 253.781 102.374C252.9 102.38 252.74 102.116 252.743 101.295C252.766 77.7418 252.775 54.1882 252.74 30.6378C252.737 28.3034 253.009 26.0656 253.89 23.9082C255.082 20.9846 256.856 18.5052 259.415 16.6313C262.436 14.4192 265.802 13.3502 269.55 13.4564C271.34 13.5079 273.134 13.4661 275.184 13.4661V13.4596Z" fill="#F1592C"/>
<path d="M322.122 57.488C318.596 49.3642 312.824 43.7133 304.291 41.366C295.921 39.0637 288 40.268 280.848 45.4585C280.627 45.085 280.716 44.7598 280.716 44.4539C280.71 34.4947 280.72 24.5356 280.697 14.5764C280.697 13.7521 280.832 13.4333 281.77 13.4365C294.928 13.472 308.09 13.4687 321.248 13.443C322.062 13.443 322.318 13.6008 322.318 14.4798C322.286 28.4864 322.295 42.4929 322.289 56.4995C322.289 56.8183 322.401 57.1821 322.122 57.488Z" fill="#F1592C"/>
<path d="M297.507 50.834C306.686 50.7567 312.606 57.7664 313.717 63.7715C314.678 68.9717 313.583 73.8949 310.104 77.8972C306.856 81.6323 302.612 83.5321 297.507 83.5997C288.737 83.7156 281.136 76.0844 281.395 66.5471C281.619 58.3074 288.461 50.6923 297.507 50.834Z" fill="#F1592C"/>
<path d="M164.904 63.738C164.785 60.9947 165.051 58.319 166.054 55.7269C167.396 52.2591 169.571 49.6059 173.104 48.2439C175.685 47.2457 178.341 46.9463 181.114 47.2264C182.466 47.3616 183.802 47.5967 185.093 47.9154C186.236 48.1956 187.38 48.8041 188.321 49.5318C192.005 52.3718 193.488 56.3355 193.923 60.853C194.068 62.3567 194.135 63.854 194.077 65.3448C193.962 68.3425 193.449 71.2726 192.075 73.9838C190.714 76.6595 188.651 78.6043 185.839 79.6637C185.006 79.976 185.038 80.2561 185.49 80.9033C186.55 82.4264 187.511 84.0138 188.561 85.5432C188.904 86.0423 188.821 86.2001 188.328 86.5092C187.024 87.3271 187.053 87.3657 186.242 86.1389C185.179 84.5257 184.093 82.9287 183.052 81.2994C182.796 80.8969 182.53 80.7617 182.062 80.7713C180.688 80.8035 179.305 80.8647 177.937 80.7649C174.647 80.5234 171.646 79.6379 169.266 77.0942C166.874 74.5408 165.596 71.556 165.089 68.1332C164.872 66.6617 165.003 65.2031 164.91 63.7413L164.904 63.738ZM181.255 78.5528C180.448 77.2938 179.721 76.125 178.955 74.9852C178.677 74.573 178.67 74.3122 179.144 74.0868C179.375 73.9773 179.596 73.8389 179.791 73.6779C180.221 73.3301 180.49 73.3334 180.816 73.8679C181.553 75.0689 182.389 76.2087 183.151 77.3937C183.462 77.8766 183.763 77.9861 184.33 77.7736C186.374 77.0073 188.03 75.7644 189.237 73.9355C190.861 71.4755 191.383 68.6613 191.582 65.8181C191.816 62.4533 191.617 59.0982 190.282 55.9105C189.404 53.8175 188.142 52.0337 186.156 50.8874C182.597 48.8331 178.712 48.8235 174.974 49.8667C171.643 50.794 169.449 53.3313 168.321 56.6865C167.418 59.3719 167.367 62.1442 167.373 64.9391C167.376 67.0095 167.601 69.0509 168.267 70.9925C170.31 76.959 175.169 79.2805 181.258 78.5528H181.255Z" fill="white"/>
<path d="M34.596 51.502C34.218 52.1493 33.8945 52.6773 33.6031 53.2215C33.1706 54.0297 33.6543 55.147 34.7113 55.4593C35.4 55.6622 35.4961 56.0067 35.5025 56.6185C35.5185 58.4409 35.2975 60.2473 35.1758 62.0569C35.1565 62.366 35.0925 62.7105 34.9323 62.9617C34.6729 63.3674 34.2917 63.493 34.0066 62.9649C33.7184 62.4304 33.4141 61.9217 32.9689 61.4902C32.6582 61.1907 32.671 60.7496 32.6774 60.3246C32.7158 57.7261 32.719 55.1277 32.7799 52.5292C32.7959 51.8627 32.6005 51.6502 31.9215 51.6598C28.5935 51.6952 25.2655 51.6985 21.9375 51.663C21.1656 51.6534 20.8645 51.9045 20.9734 52.6612C20.9862 52.7546 20.9734 52.8544 20.9734 52.951C20.9734 54.4869 20.9029 54.5288 19.4071 53.9266C18.4398 53.537 17.9017 53.8268 17.7159 54.8701C17.6774 55.0826 17.5814 55.25 17.45 55.3531C15.9478 56.5283 15.1214 58.3057 13.6896 59.5421C12.8184 60.2924 12.9209 61.3356 13.5039 62.5785C13.7569 63.1162 13.6896 63.2289 13.1195 63.2193C12.1265 63.1967 11.1336 63.2 10.1439 63.2418C9.61535 63.2644 9.42637 63.1323 9.42957 62.5592C9.4552 59.0914 9.4584 55.6235 9.42637 52.1557C9.41996 51.5085 9.72746 51.5214 10.1887 51.5214C13.4206 51.5278 16.6525 51.4924 19.8844 51.5343C20.7204 51.5439 21.0246 51.3797 21.0054 50.4556C20.9414 47.1809 21.0054 43.9063 20.9638 40.6317C20.9542 39.904 21.1464 39.7237 21.867 39.7333C25.195 39.7752 28.523 39.7816 31.851 39.7333C32.7254 39.7204 32.9208 40.0167 32.9112 40.8377C32.8696 43.9836 32.9336 47.1326 32.8728 50.2785C32.8535 51.2573 33.0746 51.7178 34.1059 51.5085C34.2277 51.4827 34.359 51.5053 34.6024 51.5053L34.596 51.502Z" fill="white"/>
<path d="M63.5041 63.2264C64.0679 62.4343 63.9974 61.6486 64.0999 60.908C64.1896 60.2608 63.8597 59.7392 63.3952 59.253C62.1909 57.994 61.041 56.6835 59.8654 55.3955C59.7117 55.2281 59.6092 55.0671 59.5644 54.8256C59.3818 53.8242 58.9045 53.5666 57.9372 53.9047C57.6137 54.0174 57.3478 54.2396 56.9539 54.2138C56.3453 54.172 56.057 54.1527 56.2268 53.3252C56.4606 52.1853 56.6175 51.6476 54.9359 51.6701C51.8322 51.7088 48.7284 51.7088 45.6246 51.6669C44.8527 51.6572 44.5836 51.8343 44.5997 52.6586C44.6509 55.2893 44.6189 57.9232 44.6093 60.5571C44.6093 61.3749 43.4145 62.9333 42.7867 63.0847C42.3479 63.1909 42.1301 63.0364 42.1173 62.6564C42.0404 60.5281 41.6016 58.4287 41.6945 56.2875C41.7137 55.8335 41.9379 55.7111 42.2518 55.5501C43.8085 54.7548 44.0423 54.0174 43.2448 52.4976C42.7611 51.58 42.7835 51.4769 43.7989 51.5156C44.542 51.5446 44.5484 51.1614 44.5452 50.6301C44.526 47.3555 44.542 44.0808 44.4876 40.8062C44.4747 40.0076 44.6029 39.7018 45.5093 39.7211C48.8693 39.7855 52.2293 39.7726 55.5894 39.7307C56.2972 39.7211 56.4157 39.9529 56.4125 40.5969C56.3869 43.9359 56.4254 47.275 56.4061 50.614C56.4029 51.3031 56.5695 51.5446 57.3126 51.5349C60.5445 51.4898 63.7764 51.5284 67.0083 51.5027C67.6329 51.4963 67.8955 51.5864 67.8859 52.3173C67.8411 55.6886 67.8507 59.0598 67.8763 62.431C67.8827 63.0493 67.729 63.2747 67.0787 63.2425C65.9609 63.1877 64.843 63.2264 63.5105 63.2264H63.5041Z" fill="white"/>
<path d="M110.835 76.3571C109.519 78.1377 108.129 79.5351 106.146 80.0761C103.055 80.9165 99.9545 81.0775 97.0012 79.5899C95.5759 78.8718 94.6726 77.6386 94.285 76.0254C93.7854 73.9389 94.0224 72.0102 95.2812 70.2522C96.2677 68.8708 97.7924 68.449 99.3171 68.0884C102.052 67.438 104.846 67.4702 107.635 67.4991C108.052 67.5024 108.468 67.4991 108.885 67.4991C110.752 67.4991 110.838 67.4927 110.678 65.6477C110.493 63.4775 109.986 61.4007 107.706 60.3993C104.97 59.2015 102.235 59.3431 99.5637 60.5635C98.1223 61.2236 97.4273 62.5341 97.2927 64.0442C97.2255 64.8041 96.9404 64.8202 96.3702 64.8137C94.7207 64.7944 94.7815 64.7976 95.073 63.1716C95.5951 60.264 97.3632 58.6637 100.115 57.9586C102.991 57.2212 105.871 57.2277 108.635 58.2999C111.277 59.3238 112.52 61.5423 112.802 64.2599C113.318 69.2443 112.901 74.2545 113.049 79.2486C113.071 80.002 112.764 80.06 112.161 80.0439C110.835 80.0149 110.835 80.0407 110.835 78.7366C110.835 78.0121 110.835 77.2876 110.835 76.3539V76.3571ZM107.072 69.4343C104.439 69.4085 101.806 69.415 99.269 70.2489C97.7315 70.7545 96.7226 71.8911 96.524 73.4721C96.3062 75.2269 96.9628 76.7274 98.5323 77.7159C100.316 78.8396 102.283 78.7849 104.247 78.5434C105.733 78.3599 107.107 77.8866 108.276 76.8111C110.294 74.9564 110.608 72.5544 110.714 70.0364C110.736 69.4923 110.518 69.4021 110.047 69.415C109.054 69.444 108.061 69.4246 107.072 69.4279V69.4343Z" fill="white"/>
<path d="M37.6584 88.7666C39.5674 88.8245 41.4604 89.1079 43.2638 88.4478C43.7762 88.261 44.0197 88.4542 44.1734 88.8052C44.3336 89.169 44.2567 89.5587 43.8659 89.8098C43.0748 90.3218 42.1875 90.5407 41.2715 90.6277C40.128 90.7371 38.9813 90.808 37.841 90.9529C39.6443 90.9464 41.4444 91.2877 43.2477 90.6953C43.7474 90.5311 44.7564 90.2799 44.9005 91.0462C45.0254 91.7063 44.0613 91.6258 43.5552 91.7546C41.1145 92.3696 38.6129 92.2988 36.1466 92.1281C34.7917 92.0348 33.2958 92.0766 32.0723 91.0398C32.62 90.6341 33.3471 90.6631 33.8147 90.1865C32.825 89.1594 32.7737 89.095 33.8372 88.2417C34.4842 87.7233 33.8852 86.9022 34.3913 86.5287C34.8205 86.2164 35.4835 86.3581 35.6885 85.5724C35.9896 84.4133 36.1626 83.238 36.3291 82.0627C36.5918 80.1952 36.6302 78.3083 36.659 76.4215C36.6687 75.7614 36.5437 75.3138 35.8423 75.243C35.381 75.1979 34.8141 74.789 34.9038 74.6247C35.144 74.1675 34.9582 73.4559 35.4643 73.2337C36.6494 72.7121 36.4605 71.7623 36.1914 70.9025C35.8935 69.9527 35.9063 68.8901 35.2657 68.0465C35.1888 67.9467 35.1824 67.7245 35.2369 67.6054C35.317 67.4315 35.5316 67.4701 35.6597 67.5506C37.1299 68.478 38.677 68.5585 40.349 67.9724C39.7308 67.058 39.0485 68.2493 38.4367 67.8952C37.8346 67.5442 37.1876 67.6279 36.4637 67.9595C36.7968 66.9678 37.037 66.15 38.0011 65.8344C38.4848 65.6766 38.2061 65.4029 38.0011 65.2001C37.6712 64.8749 37.495 64.5658 37.8954 64.1536C38.2542 63.7866 38.6866 63.661 39.1126 63.8832C39.6155 64.1472 39.5546 64.8234 39.3464 65.0681C38.7923 65.7153 39.1991 65.7765 39.6763 66.0115C40.1312 66.2369 40.4931 66.604 40.5636 67.1868C40.6372 67.7953 40.9608 67.9821 41.5117 67.6247C41.6686 67.5249 41.8448 67.3606 42.0146 67.541C42.1715 67.7084 42.021 67.9048 41.9505 68.0722C41.5405 69.0608 41.2586 70.0718 41.0761 71.1408C40.9159 72.0746 40.8198 72.8152 42.0306 73.2531C41.3291 73.559 40.8262 73.8777 40.2112 73.9647C40.6565 74.1611 41.0857 74.1128 41.4989 73.9453C41.9889 73.7489 42.2836 74.0999 42.4342 74.3994C42.668 74.8727 42.1363 74.9789 41.864 75.1013C40.7686 75.6004 40.7814 75.5811 40.7558 76.708C40.7045 79.0682 40.7558 81.422 41.1593 83.7532C41.2618 84.3424 41.4444 84.9188 41.5854 85.5016C41.7263 86.0844 42.2003 86.474 42.8826 86.5641C41.2266 87.3079 39.4906 87.1341 37.7865 87.2339C39.3016 87.4335 40.8102 87.4528 42.3221 87.2822C42.5655 87.2532 42.8986 86.9473 43.0363 87.4078C43.1901 87.9165 42.7577 88.0228 42.4406 88.0743C40.9736 88.3093 39.497 88.4993 38.0236 88.7054C37.9018 88.7215 37.7801 88.7376 37.6584 88.7537V88.7666Z" fill="white"/>
<path d="M127.744 80.6076C124.999 80.8105 122.616 79.9282 120.637 78.0639C119.176 76.689 118.135 74.9631 117.85 72.9732C117.392 69.7791 117.187 66.5624 118.398 63.4391C119.653 60.2031 122.462 58.0941 125.915 57.6401C128.564 57.2923 131.053 57.595 133.394 58.8475C135.88 60.1773 137.039 62.4119 137.421 65.1328C137.513 65.8025 137.28 65.986 136.601 65.9893C135.63 65.9957 134.884 66.0472 134.72 64.7142C134.416 62.2284 132.757 60.8278 130.492 60.0775C127.719 59.1566 125.114 59.5398 122.805 61.3268C121.261 62.5214 120.499 64.2924 120.163 66.1374C119.669 68.8453 119.737 71.55 120.87 74.1614C121.982 76.7148 124.506 78.3666 127.222 78.5018C129.583 78.6209 131.671 78.0736 133.369 76.3123C134.301 75.3431 134.765 74.1807 134.89 72.8831C134.938 72.4001 135.089 72.3292 135.512 72.3131C137.606 72.2391 137.702 72.3647 137.145 74.4222C136.187 77.9641 133.705 79.7093 130.287 80.4466C129.429 80.6302 128.587 80.5786 127.741 80.6108L127.744 80.6076Z" fill="white"/>
<path d="M58.2025 55.2279C58.2121 56.2228 59.141 56.5609 59.724 57.0246C60.97 58.0196 61.7195 59.4363 62.8918 60.4763C63.2602 60.8015 63.0071 62.331 62.5939 62.3857C62.0078 62.463 61.3191 63.0812 60.7746 62.1603C60.2909 61.3489 59.298 61.2845 58.5132 60.9754C57.5779 60.6084 56.7035 60.267 56.2551 59.0692C56.0821 59.9257 56.5786 60.2284 56.9245 60.6019C57.0943 60.7822 57.469 60.8498 57.4306 61.1332C57.2128 62.6659 58.2602 63.7542 58.7695 65.0228C59.1602 65.9985 58.9873 66.9838 58.9649 67.9658C58.9552 68.3039 58.6958 68.5744 58.3563 68.6227C57.9431 68.6839 57.7797 68.7772 58.0039 69.2216C58.1801 69.5726 57.9046 69.6209 57.6196 69.6627C57.2608 69.7175 56.8508 69.5404 56.4985 69.901C57.2128 70.0813 57.9367 69.8366 58.7983 70.1296C58.0168 70.5578 57.3313 70.5578 56.6715 70.7285C57.3281 70.8734 58.0071 70.8959 58.6221 70.677C59.33 70.4258 59.7464 70.8219 59.9322 71.292C60.1884 71.9456 59.5414 72.1324 59.077 72.2773C57.911 72.6411 56.6779 72.6186 55.4895 72.9148C56.8412 72.8214 58.2089 72.9631 59.5382 72.6089C59.756 72.551 60.0379 72.3932 60.134 72.6121C60.2749 72.9277 59.9418 72.9921 59.708 73.1048C58.6381 73.6264 57.469 73.5202 56.3448 73.6071C54.8265 73.7262 53.3018 73.6071 51.8156 73.2626C51.4152 73.1692 50.8227 72.9985 51.3768 72.3803C51.5882 72.1453 51.6138 71.9488 51.4505 71.7009C51.3544 71.556 51.2999 71.3242 51.4281 71.2598C52.2897 70.838 52.2961 69.6949 53.1129 69.2602C53.6029 68.9994 53.683 68.8062 53.0776 68.6388C52.6644 68.5261 52.6805 68.2105 52.6805 67.8789C52.6805 65.9019 51.9918 64.0472 51.6587 62.1281C51.4441 60.9046 51.1846 59.7036 51.5434 58.3963C52.1455 56.2132 55.2781 54.687 57.3825 55.5628C57.8726 55.7656 57.8086 55.1667 58.2121 55.2247L58.2025 55.2279ZM54.7753 56.3291C54.5895 56.3098 54.4934 56.284 54.4037 56.2969C54.282 56.313 54.1378 56.3291 54.045 56.3999C52.8054 57.3208 52.0334 58.5186 51.8989 60.0899C51.7452 61.9124 52.6805 63.5063 52.9976 65.2321C53.0712 65.6411 52.9719 66.2078 53.6125 66.4171C53.8143 65.1452 53.2378 64.0536 52.9719 62.917C52.5299 61.0237 52.4594 59.2496 53.6798 57.5559C53.9969 57.1148 54.4966 56.8861 54.7753 56.3291ZM58.7022 58.319C59.0577 58.1709 59.5382 58.3287 59.7592 57.9101C59.8361 57.7684 59.6727 57.5977 59.519 57.5623C58.9713 57.44 58.8784 57.9197 58.699 58.319H58.7022Z" fill="white"/>
<path d="M20.4867 60.2255C19.404 60.6827 18.3246 61.1528 17.2356 61.5939C16.6174 61.8418 16.3067 62.4697 15.4803 62.5728C14.5578 62.6855 14.4137 62.0994 14.2952 61.668C14.1831 61.2655 14.356 60.6118 14.6507 60.2995C15.7814 59.0824 16.7871 57.759 17.937 56.5548C19.9486 54.4457 24.2695 55.2571 25.461 57.6399C26.092 58.8989 25.8742 60.248 25.7205 61.5134C25.4514 63.6997 24.5834 65.7927 24.6218 68.0434C24.625 68.2398 24.6122 68.4652 24.3976 68.5328C23.5328 68.8001 24.0485 69.0093 24.3271 69.4376C24.766 70.1073 25.2785 70.6515 25.8518 71.1957C26.1945 71.5241 25.8326 72.1649 26.06 72.7348C26.2458 73.1984 25.3041 73.2306 24.8076 73.353C22.6423 73.8778 20.4643 73.7104 18.2894 73.4657C18.0492 73.4399 17.7801 73.3562 17.5911 73.2145C17.4085 73.0761 17.0338 72.9666 17.1363 72.68C17.2612 72.3387 17.5335 72.6285 17.7577 72.6446C19.0773 72.7412 20.3874 73.221 21.8127 72.796C20.5539 72.5995 19.3528 72.6607 18.1997 72.3291C17.7096 72.1874 17.2067 71.8783 17.3733 71.3695C17.5399 70.864 17.9402 70.4905 18.7122 70.7481C19.8845 71.1409 21.1465 70.7932 22.2548 70.922C21.1433 70.5324 19.7019 70.9316 18.6225 69.9689C19.8108 70.1267 20.9767 69.898 22.1459 69.8884C21.3291 69.8208 20.5123 69.7564 19.6955 69.6791C19.4873 69.6598 19.0581 69.5728 19.1574 69.4601C19.955 68.536 18.7923 68.6841 18.568 68.3557C18.3951 68.1013 18.3182 67.8792 18.2894 67.5797C18.1677 66.3272 18.3727 65.168 19.0357 64.0732C19.5162 63.2811 19.971 62.4375 19.8076 61.4522C19.6923 60.7632 20.445 60.8276 20.6308 60.4122C20.6629 60.351 20.6949 60.2931 20.7269 60.2319C20.65 60.2319 20.5764 60.2319 20.4995 60.2319L20.4867 60.2255ZM22.2516 56.3262C24.3336 57.9329 25.2048 60.2866 24.2599 62.8239C23.8115 64.0282 23.4847 65.2936 23.7282 66.7586C24.2855 66.0374 24.183 65.2453 24.4457 64.5659C25.1183 62.8175 25.6084 61.0369 25.2176 59.1082C24.9582 57.8234 23.5904 56.3873 22.2516 56.3262Z" fill="white"/>
<path d="M219.804 56.8953C219.804 73.7933 219.804 90.6914 219.804 107.589C219.804 107.847 219.794 108.105 219.804 108.359C219.817 108.768 219.525 108.71 219.279 108.71C219.032 108.71 218.737 108.771 218.75 108.362C218.757 108.137 218.75 107.911 218.75 107.689C218.75 73.8288 218.75 39.9715 218.763 6.111C218.763 5.69885 218.42 4.99047 219.375 5.07419C219.705 5.10317 219.83 5.20621 219.81 5.53142C219.794 5.78579 219.81 6.0466 219.81 6.30097C219.81 23.1668 219.81 40.0327 219.81 56.8985L219.804 56.8953Z" fill="white"/>
<path d="M87.2608 64.9938C87.2608 69.682 87.2384 74.3734 87.2801 79.0616C87.2865 79.8601 87.0975 80.1756 86.2903 80.0436C86.0085 79.9986 85.7138 80.0147 85.4287 80.0436C85.0059 80.0823 84.865 79.9052 84.8842 79.493C84.9098 78.9489 84.8906 78.4015 84.8906 77.8541C84.8906 68.9253 84.8714 59.9933 84.9162 51.0645C84.9194 50.0953 84.6375 49.9118 83.7471 49.9375C81.38 50.0019 79.0098 49.9376 76.6395 49.9762C76.0309 49.9859 75.8932 49.8055 75.9028 49.2227C75.9252 47.835 75.8932 47.835 77.2385 47.835C83.193 47.835 89.1475 47.8575 95.1019 47.8092C95.9924 47.8028 96.1622 48.0732 96.1205 48.875C96.0853 49.5737 96.1397 50.0309 95.1468 49.9891C92.815 49.8893 90.4735 49.9891 88.1385 49.9408C87.4274 49.9247 87.2352 50.0985 87.2416 50.8295C87.2769 55.5498 87.2608 60.2734 87.2608 64.9938Z" fill="white"/>
<path d="M35.6947 47.1136C35.4096 46.8174 35.3776 46.6467 35.8837 46.6145C36.7165 46.563 37.9272 45.1398 37.8696 44.3123C37.8375 43.8293 37.5493 43.356 37.8696 42.8601C37.9304 42.7699 37.8888 42.4318 37.7286 42.4801C36.5371 42.844 37.1136 41.8458 37.1329 41.5721C37.1777 40.8605 37.735 41.8973 37.924 41.3661C38.113 40.9732 37.3218 40.4065 38.0938 40.0523C38.3757 39.9235 38.5454 39.3246 39.0067 39.8044C39.3366 40.1457 39.8747 40.4065 39.3686 40.999C39.2693 41.1149 39.1348 41.2759 39.2949 41.4079C39.5704 41.6333 39.8298 41.3017 40.1437 41.3306V42.5993C39.4935 42.4479 38.776 42.2773 39.5127 43.3109C39.532 43.3366 39.5576 43.3753 39.548 43.3978C39.0995 44.5538 39.6088 45.304 40.4416 46.0993C40.7779 46.4213 40.9701 46.7272 41.457 46.6821C42.1489 46.6209 42.2001 46.9236 41.9407 47.4742C41.4538 48.5014 41.1591 49.5993 40.9797 50.7134C40.858 51.483 40.7235 52.3717 42.0079 52.5617C41.0086 53.1219 40.0092 53.1251 39.0771 53.4214C39.833 53.7337 40.5826 53.3827 41.3289 53.3409C41.6075 53.3248 41.8638 53.1573 42.1425 53.3731C42.5685 53.7015 42.7062 54.0009 42.1168 54.2811C41.4218 54.6127 40.6754 54.7608 39.801 54.8768C41.0694 55.1601 40.7619 56.1068 40.7523 56.8989C40.7107 60.0028 40.9061 63.0779 41.8221 66.0756C41.1271 65.9339 40.5826 65.3092 40.5729 64.662C40.5537 63.1906 39.9419 62.6238 38.4301 62.6882C37.2482 62.7365 36.678 63.5802 36.6556 64.9293C36.646 65.4509 36.1816 65.9597 35.4993 66.2495C35.7652 64.8327 36.0887 63.5286 36.2456 62.2053C36.5243 59.8612 36.6748 57.5042 36.6108 55.1376C36.598 54.6675 36.268 54.6288 35.8869 54.5612C34.9324 54.3906 34.8939 54.1523 35.227 53.2829C35.4416 52.7291 35.6114 52.2976 36.204 52.0143C36.5083 51.8694 36.3641 51.3123 36.2969 50.9453C36.0823 49.7732 35.826 48.6108 35.4128 47.4871C35.3039 47.1876 35.3295 47.178 35.7107 47.1136C37.4628 47.8638 40.3519 47.8767 41.4762 47.0621C41.0918 47.12 40.81 47.1458 40.5345 47.207C39.3622 47.471 38.1899 47.6223 37.0111 47.2263C36.5819 47.0814 36.1335 47.1071 35.6883 47.1232L35.6947 47.1136Z" fill="white"/>
<path d="M143.039 67.9239C143.039 65.5798 143.001 63.2357 143.062 60.8948C143.081 60.1027 142.821 59.916 142.098 59.9707C141.335 60.0287 140.557 59.9321 139.795 59.9965C138.971 60.0673 139.116 59.5231 139.154 59.0788C139.192 58.6602 138.811 57.9808 139.766 58.0388C140.659 58.0935 141.556 58.0259 142.453 58.0581C142.921 58.0742 143.055 57.91 143.046 57.456C143.02 56.1068 143.062 54.7577 143.026 53.4118C143.01 52.8451 143.139 52.6326 143.757 52.6358C145.317 52.6454 145.317 52.61 145.317 54.191C145.317 55.2503 145.345 56.3097 145.304 57.369C145.281 57.9293 145.47 58.071 146.009 58.0645C147.959 58.0356 149.913 58.1032 151.864 58.0291C152.802 57.9937 152.581 58.5572 152.6 59.0627C152.623 59.5875 152.697 60.0319 151.867 60.0029C149.916 59.9353 147.962 59.9997 146.012 59.9707C145.48 59.9643 145.301 60.1027 145.304 60.6598C145.336 65.2514 145.313 69.8397 145.362 74.4313C145.384 76.4309 146.39 77.7896 148.219 78.2018C149.224 78.4272 150.294 78.395 151.338 78.1664C151.688 78.0891 152.392 77.7768 152.351 78.4723C152.319 79.0486 153.071 80.05 151.739 80.2336C149.948 80.4815 148.158 80.6682 146.402 80.0887C144.583 79.4898 142.969 77.1392 142.982 75.233C142.994 72.7956 142.982 70.3581 142.982 67.9207C142.998 67.9207 143.014 67.9207 143.033 67.9207L143.039 67.9239Z" fill="white"/>
<path d="M48.478 78.2179C48.9905 78.5624 49.503 78.2887 50.0059 78.2565C50.2589 78.2404 50.5088 78.1342 50.7554 78.1406C51.2871 78.1535 51.7579 78.4723 51.8092 78.9424C51.8604 79.4189 51.4729 79.7023 50.9123 79.8504C49.1282 80.3269 47.3089 80.4203 45.48 80.5169C47.6773 80.7906 49.8617 80.6489 52.1455 80.1981C51.8829 80.8711 51.4761 80.9226 51.0212 81.016C48.1705 81.5988 45.3294 81.5988 42.4851 80.9935C42.2897 80.9516 42.0879 80.913 41.9982 80.7359C41.9342 80.6071 41.8925 80.3495 41.963 80.2883C42.5876 79.7474 41.3928 78.6977 42.5524 78.2887C43.0937 78.0988 43.5773 77.7317 43.4588 76.9976C43.4364 76.8527 43.4524 76.6563 43.6446 76.5951C45.0475 76.1539 44.9835 74.8563 45.1725 73.7938C45.3678 72.7054 45.3134 71.5752 45.3871 70.4676C45.4191 69.975 45.3935 69.6433 44.7432 69.5467C44.2916 69.4791 43.6222 69.3149 44.4806 68.5582C45.5728 67.5954 45.5568 67.0931 44.7368 65.7376C44.0354 64.5784 44.1122 63.5835 45.0027 62.5982C45.4127 62.1474 45.7842 61.6644 46.1718 61.1943C46.3832 60.9367 46.7388 60.7338 46.3928 60.3088C46.2231 60.0995 46.3608 59.8838 46.5626 59.7389C46.7612 59.5972 46.9886 59.5715 47.1968 59.6745C47.4274 59.7872 47.4658 60.019 47.4274 60.2541C47.2737 61.1782 47.421 61.9993 48.068 62.7366C49.0161 63.8121 49.061 64.4432 48.4011 65.6828C48.3563 65.7665 48.289 65.8406 48.2506 65.9275C47.9815 66.5329 47.5651 67.1382 48.4716 67.618C48.6446 67.7114 48.9649 67.8176 48.9425 68.175C48.5357 68.4197 47.9911 68.1911 47.5587 68.5904C48.0968 68.8255 48.6157 68.6387 49.1154 68.6709C49.3781 68.687 49.6663 68.7224 49.7208 69.0283C49.7913 69.4018 49.4229 69.3535 49.2211 69.4759C48.8303 69.7077 48.3115 69.4501 47.879 69.9041C48.4684 70.0329 48.4748 70.4418 48.446 70.8958C48.3563 72.3867 48.6382 73.8356 48.9905 75.2717C49.1282 75.8384 49.4165 76.3149 49.9642 76.6949C48.635 77.0652 47.3698 77.1553 46.1013 77.2455C47.2961 77.3646 48.4844 77.4709 49.676 77.223C49.881 77.1811 50.1917 77.0748 50.2749 77.3099C50.4063 77.6866 50.0251 77.6641 49.8009 77.7381C49.3653 77.883 48.8592 77.838 48.4748 78.2276L48.478 78.2179Z" fill="white"/>
<path d="M32.4855 78.4208C32.9884 78.3274 33.4881 78.2115 33.9942 78.1406C34.6444 78.0505 35.2209 78.337 35.3202 78.9424C35.4099 79.4898 34.9199 79.7055 34.3337 79.8536C32.5688 80.2948 30.7847 80.4879 28.9686 80.504C30.9064 80.7133 32.8379 80.7198 34.7629 80.4107C34.9423 80.3817 35.1953 80.0661 35.2978 80.4525C35.3683 80.7262 35.1953 80.9226 34.8846 80.9806C33.9141 81.1512 32.95 81.3444 31.9602 81.396C30.1473 81.4926 28.3408 81.4314 26.5407 81.1802C26.1787 81.1287 25.8936 80.9484 25.5893 80.781C25.4804 80.723 25.3651 80.6296 25.3139 80.5234C25.0961 80.0533 26.2075 79.9728 25.615 79.2676C25.1633 78.7331 25.8872 78.4272 26.2492 78.1825C26.672 77.8959 27.0403 77.6576 26.9667 77.0652C26.9506 76.9364 27.0531 76.6917 27.1492 76.6627C28.5105 76.2667 28.3216 74.9433 28.6258 74.0031C29.0166 72.7988 28.8853 71.4819 28.8629 70.2068C28.8597 69.9589 28.9269 69.6498 28.5522 69.6143C28.155 69.5789 27.6233 69.4533 27.6009 69.141C27.572 68.7321 28.0749 68.1686 28.2991 68.0688C29.196 67.6727 28.818 67.1125 28.6547 66.5715C28.5746 66.3043 28.3984 66.0628 28.2511 65.8181C27.2934 64.2113 27.6777 63.5513 28.6675 62.4243C29.007 62.0411 29.3337 61.6451 29.6572 61.249C29.8782 60.9786 30.0993 60.7306 29.9103 60.3088C29.7149 59.8774 29.9583 59.6552 30.4035 59.6198C30.8231 59.5876 30.9513 59.7743 30.9513 60.1832C30.9545 61.2458 31.0442 62.2665 31.8802 63.1005C32.4567 63.6768 32.4183 64.4303 32.1076 65.1612C32.0083 65.3963 31.8513 65.6152 31.7937 65.8599C31.6752 66.3461 31.1338 66.8549 31.8802 67.3507C31.957 67.4023 32.809 67.853 32.1844 68.4423C32.1108 68.5131 32.5496 68.687 32.8058 68.6967C33.0557 68.7063 33.2511 68.7997 33.2318 69.0927C33.2158 69.3439 33.0301 69.3889 32.8251 69.4018C31.941 69.4501 31.8609 69.9073 31.8994 70.7349C31.9794 72.4028 32.0083 74.0546 32.6809 75.6195C32.8475 76.0026 33.0172 76.3697 33.408 76.6627C32.0627 77.1425 30.7142 77.1167 29.369 77.2874C30.1889 77.6158 31.0538 77.6255 31.8962 77.4387C32.3958 77.3292 32.8923 77.2487 33.3952 77.1811C33.5393 77.1618 33.7443 77.1231 33.7892 77.3292C33.8436 77.5772 33.6643 77.6641 33.4529 77.6898C32.4823 77.8058 31.5406 78.1406 30.5541 78.1342C29.9871 78.1213 29.417 78.1084 28.8469 78.0956L28.7892 78.0505L28.834 78.1117C30.0064 78.7234 31.2588 78.4465 32.4855 78.4272V78.4208Z" fill="white"/>
<path d="M159.153 64.031C159.153 68.9413 159.153 73.8549 159.153 78.7652C159.153 79.596 158.724 80.0103 157.866 80.0081C157.706 80.0081 157.545 79.9952 157.385 80.0081C156.988 80.05 156.77 79.9212 156.825 79.4801C156.841 79.3545 156.825 79.2225 156.825 79.0937C156.825 68.9832 156.825 58.8695 156.834 48.759C156.834 48.4595 156.6 47.9379 157.097 47.8864C157.747 47.8188 158.445 47.6932 159.06 47.9926C159.189 48.0538 159.141 48.5271 159.141 48.8105C159.144 53.8818 159.141 58.9532 159.141 64.0277L159.153 64.031Z" fill="white"/>
<path d="M26.6208 70.1549C25.7688 69.6913 25.6086 69.1278 25.6983 68.252C25.8361 66.9318 25.9354 65.6116 26.1756 64.3044C26.2076 64.1273 26.2557 64.0049 26.4703 63.918C26.5599 64.8421 26.8098 65.7115 27.3095 66.481C27.6938 67.0767 27.2614 67.4888 26.9603 67.8173C26.3229 68.5128 25.6439 69.1278 26.6176 70.1549H26.6208Z" fill="white"/>
<path d="M21.0669 75.0432C21.3616 74.557 21.7524 74.6793 22.1015 74.6632C23.5557 74.5988 25.0195 74.6954 26.4064 74.0611C27.1239 73.7327 27.4826 73.2497 27.3065 72.4866C27.1495 71.804 27.2552 71.0537 26.7619 70.3872C27.4346 70.4162 27.7517 70.619 27.7293 71.3403C27.6908 72.4866 27.7421 73.6296 27.1431 74.6793C27.0534 74.8371 27.0919 75.0432 26.826 75.0432C24.9074 75.04 22.9919 75.0432 21.0733 75.0432H21.0669Z" fill="white"/>
<path d="M50.9535 64.3242C51.8087 66.5524 51.7607 69.4696 50.8222 70.0428C51.1009 69.0543 51.0144 68.2235 50.2136 67.5473C49.7364 67.1449 49.7235 66.6586 50.204 66.1692C50.6556 65.7088 50.5627 64.9875 50.9535 64.3242Z" fill="white"/>
<path d="M56.2937 75.05C54.6666 75.05 53.0394 75.0468 51.4123 75.05C49.814 75.0564 49.814 75.0597 49.8172 73.2275C51.6749 75.1563 54.1253 74.4157 56.3194 74.7667C56.3098 74.86 56.3034 74.9534 56.2937 75.0468V75.05Z" fill="white"/>
<path d="M34.7332 69.6533C34.6596 70.2232 34.8902 70.7094 35.0503 71.1474C35.3258 71.904 35.0055 71.9749 34.4354 71.9008C34.0702 71.8525 33.6794 71.7978 33.3687 71.6239C32.8883 71.3534 32.8755 70.8286 33.2887 70.571C33.7595 70.278 34.2079 69.9528 34.7364 69.6533H34.7332Z" fill="white"/>
<path d="M43.472 70.5806C43.7923 70.6289 44.2536 70.4228 44.2055 71.0378C44.0998 72.3451 42.9467 71.4499 42.3894 71.8814C42.1171 72.0939 42.1235 71.6625 42.1235 71.466C42.1235 70.4711 42.8763 70.6385 43.472 70.5806Z" fill="white"/>
<path d="M49.593 72.2389C49.593 71.7044 49.5578 71.2279 49.6058 70.761C49.6347 70.4841 49.8973 70.3295 50.1728 70.3939C50.586 70.4905 50.2657 70.7063 50.2176 70.8769C50.0799 71.3406 50.4546 72.0103 49.593 72.2389Z" fill="white"/>
<path d="M28.8468 78.0923C29.4169 78.1052 29.9871 78.118 30.554 78.1309C31.1402 78.6171 31.8673 78.1792 32.4887 78.4239C31.2587 78.4433 30.0063 78.7202 28.834 78.1084L28.8468 78.0955V78.0923Z" fill="#F1592C"/>
<path d="M181.255 78.5566C175.166 79.2811 170.307 76.9627 168.263 70.9963C167.6 69.0579 167.376 67.0165 167.37 64.9428C167.363 62.148 167.414 59.3788 168.318 56.6902C169.445 53.3351 171.639 50.801 174.97 49.8705C178.708 48.8272 182.594 48.8369 186.152 50.8912C188.138 52.0375 189.4 53.8213 190.278 55.9142C191.614 59.0987 191.815 62.4538 191.578 65.8219C191.38 68.665 190.858 71.4792 189.234 73.9392C188.026 75.7681 186.373 77.0078 184.327 77.7774C183.756 77.9899 183.459 77.8836 183.148 77.3974C182.386 76.2125 181.55 75.0726 180.813 73.8716C180.486 73.3371 180.214 73.3339 179.788 73.6816C179.592 73.8426 179.368 73.9811 179.141 74.0906C178.667 74.316 178.673 74.5768 178.952 74.9889C179.717 76.1288 180.444 77.2976 181.252 78.5566H181.255Z" fill="#1D272F"/>
<path d="M107.068 69.4307C108.061 69.4307 109.054 69.4501 110.044 69.4211C110.515 69.4082 110.733 69.4951 110.71 70.0425C110.604 72.5605 110.291 74.9593 108.273 76.8172C107.104 77.8926 105.729 78.366 104.243 78.5495C102.28 78.791 100.313 78.8457 98.5289 77.722C96.9594 76.7335 96.3028 75.233 96.5206 73.4782C96.7192 71.8972 97.7249 70.7606 99.2656 70.255C101.802 69.4211 104.435 69.4146 107.068 69.4372V69.4307Z" fill="#1D272F"/>
<path d="M54.7751 56.3289C54.4965 56.8827 53.9968 57.1145 53.6797 57.5556C52.4593 59.2493 52.5298 61.0235 52.9718 62.9168C53.2377 64.0534 53.8142 65.145 53.6124 66.4168C52.9718 66.2075 53.0711 65.6408 52.9974 65.2319C52.6803 63.506 51.745 61.9154 51.8988 60.0897C52.0333 58.5184 52.8052 57.3206 54.0448 56.3997C54.1377 56.3289 54.2819 56.3128 54.4036 56.2967C54.4933 56.2838 54.5893 56.3128 54.7751 56.3289Z" fill="#1D272F"/>
<path d="M58.7021 58.3191C58.8815 57.9198 58.9712 57.44 59.5221 57.5624C59.6759 57.5978 59.8392 57.7685 59.7624 57.9102C59.5381 58.3287 59.0577 58.171 58.7053 58.3191H58.7021Z" fill="#1D272F"/>
<path d="M22.2524 56.3228C23.5913 56.3839 24.959 57.82 25.2185 59.1047C25.6092 61.0335 25.1192 62.8173 24.4465 64.5625C24.1871 65.2387 24.2896 66.034 23.7291 66.7552C23.4824 65.2902 23.8123 64.0248 24.2608 62.8205C25.2025 60.2865 24.3344 57.9295 22.2524 56.3228Z" fill="#1D272F"/>
<path d="M20.4873 60.2251C20.5642 60.2251 20.6378 60.2251 20.7147 60.2251C20.6827 60.2863 20.6507 60.3442 20.6186 60.4054C20.5738 60.3442 20.5321 60.2863 20.4873 60.2251Z" fill="#1D272F"/>
<path d="M35.6948 47.1139C36.14 47.0978 36.5853 47.0721 37.0177 47.2169C38.1964 47.613 39.3655 47.4617 40.5411 47.1976C40.8165 47.1365 41.0984 47.1107 41.4827 47.0527C40.3553 47.8674 37.4661 47.8545 35.7172 47.1042L35.698 47.1139H35.6948Z" fill="#1D272F"/>
<path d="M28.8348 78.1062L28.7891 78.0444L28.8479 78.0932L28.8348 78.1062Z" fill="#F1592C"/>
</g>
<defs>
<clipPath id="clip0_191_11261">
<rect width="337.667" height="114.371" fill="white"/>
</clipPath>
</defs>
</svg>
