<svg width="30" height="30" viewBox="0 0 30 30" fill="none" xmlns="http://www.w3.org/2000/svg">
<path d="M6.5625 1.875C5.3193 1.875 4.12701 2.36886 3.24794 3.24794C2.36886 4.12701 1.875 5.3193 1.875 6.5625V19.6875C1.875 20.9307 2.36886 22.123 3.24794 23.0021C4.12701 23.8811 5.3193 24.375 6.5625 24.375H15.0938C15.2952 23.3877 15.8094 22.4915 16.5602 21.8194C17.311 21.1473 18.2584 20.7351 19.2619 20.6438C18.4784 19.7766 17.9845 18.6869 17.8488 17.5261C17.7131 16.3654 17.9423 15.1912 18.5046 14.1666C19.0668 13.1421 19.9342 12.3182 20.9863 11.8093C22.0383 11.3003 23.2227 11.1317 24.375 11.3269V6.5625C24.375 5.3193 23.8811 4.12701 23.0021 3.24794C22.123 2.36886 20.9307 1.875 19.6875 1.875H6.5625ZM18.4762 10.9762L11.9137 17.5387C11.8267 17.6261 11.7232 17.6953 11.6093 17.7426C11.4954 17.7898 11.3733 17.8142 11.25 17.8142C11.1267 17.8142 11.0046 17.7898 10.8907 17.7426C10.7768 17.6953 10.6733 17.6261 10.5863 17.5387L7.77375 14.7262C7.68658 14.6391 7.61744 14.5356 7.57027 14.4217C7.5231 14.3078 7.49882 14.1858 7.49882 14.0625C7.49882 13.9392 7.5231 13.8172 7.57027 13.7033C7.61744 13.5894 7.68658 13.4859 7.77375 13.3988C7.86091 13.3116 7.96439 13.2424 8.07828 13.1953C8.19217 13.1481 8.31423 13.1238 8.4375 13.1238C8.56077 13.1238 8.68283 13.1481 8.79672 13.1953C8.91061 13.2424 9.01409 13.3116 9.10125 13.3988L11.25 15.5494L17.1488 9.64875C17.3248 9.47271 17.5635 9.37382 17.8125 9.37382C18.0615 9.37382 18.3002 9.47271 18.4762 9.64875C18.6523 9.82479 18.7512 10.0635 18.7512 10.3125C18.7512 10.5615 18.6523 10.8002 18.4762 10.9762ZM27.1875 16.875C27.1875 17.8696 26.7924 18.8234 26.0891 19.5266C25.3859 20.2299 24.4321 20.625 23.4375 20.625C22.4429 20.625 21.4891 20.2299 20.7859 19.5266C20.0826 18.8234 19.6875 17.8696 19.6875 16.875C19.6875 15.8804 20.0826 14.9266 20.7859 14.2233C21.4891 13.5201 22.4429 13.125 23.4375 13.125C24.4321 13.125 25.3859 13.5201 26.0891 14.2233C26.7924 14.9266 27.1875 15.8804 27.1875 16.875ZM30 25.3125C30 27.6469 28.125 30 23.4375 30C18.75 30 16.875 27.6562 16.875 25.3125C16.875 24.5666 17.1713 23.8512 17.6988 23.3238C18.2262 22.7963 18.9416 22.5 19.6875 22.5H27.1875C27.9334 22.5 28.6488 22.7963 29.1762 23.3238C29.7037 23.8512 30 24.5666 30 25.3125Z" fill="#56AD37"/>
</svg>
