<svg width="30" height="30" viewBox="0 0 30 30" fill="none" xmlns="http://www.w3.org/2000/svg">
<path d="M20 2.5H5C4.66848 2.5 4.35054 2.6317 4.11612 2.86612C3.8817 3.10054 3.75 3.41848 3.75 3.75V26.25C3.75 26.5815 3.8817 26.8995 4.11612 27.1339C4.35054 27.3683 4.66848 27.5 5 27.5H15.3188C14.2154 25.9168 13.6663 24.0134 13.757 22.0858C13.8476 20.1582 14.573 18.3146 15.8201 16.8421C17.0672 15.3695 18.7662 14.3505 20.6525 13.9436C22.5388 13.5367 24.5068 13.7649 26.25 14.5925V8.75L20 2.5ZM17.2325 19.1587C17.2812 18.25 17.9825 17.51 18.8875 17.4137L19.975 17.2987C20.1046 17.2847 20.2265 17.2305 20.3238 17.1438L21.1375 16.4125C21.465 16.1174 21.8871 15.9489 22.3278 15.9375C22.7685 15.926 23.1989 16.0723 23.5413 16.35L24.3937 17.0375C24.4937 17.1188 24.6187 17.1663 24.7487 17.1737L25.8413 17.2325C26.75 17.2812 27.49 17.9825 27.5863 18.8875L27.7012 19.975C27.7153 20.1046 27.7695 20.2265 27.8563 20.3238L28.5875 21.1375C29.1963 21.815 29.2225 22.8337 28.65 23.5413L27.9625 24.3937C27.8813 24.4951 27.8337 24.6191 27.8263 24.7487L27.7675 25.8413C27.7449 26.2816 27.5657 26.6994 27.2622 27.0194C26.9588 27.3393 26.5511 27.5404 26.1125 27.5863L25.025 27.7012C24.8954 27.7153 24.7735 27.7695 24.6762 27.8563L23.8625 28.5875C23.535 28.8826 23.1129 29.0511 22.6722 29.0625C22.2315 29.074 21.8011 28.9277 21.4587 28.65L20.6063 27.9625C20.5049 27.8813 20.3809 27.8337 20.2513 27.8263L19.1587 27.7675C18.7184 27.7449 18.3006 27.5657 17.9806 27.2622C17.6607 26.9588 17.4596 26.5511 17.4137 26.1125L17.2987 25.025C17.2847 24.8954 17.2305 24.7735 17.1438 24.6762L16.4125 23.8625C16.1174 23.535 15.9489 23.1129 15.9375 22.6722C15.926 22.2315 16.0723 21.8011 16.35 21.4587L17.0375 20.6063C17.1187 20.5049 17.1663 20.3809 17.1737 20.2513L17.2325 19.1587ZM26.2875 21.2875L24.9625 19.9625L21.875 23.05L20.0375 21.2125L18.7125 22.5375L21.2125 25.0375L21.875 25.7L22.5375 25.0375L26.2875 21.2875Z" fill="#56AD37"/>
</svg>
