<svg width="30" height="30" viewBox="0 0 30 30" fill="none" xmlns="http://www.w3.org/2000/svg">
<path d="M13.75 5V12.5C13.75 13.8813 11.2312 15 8.125 15C5.01875 15 2.5 13.8813 2.5 12.5V5" stroke="#56AD37" stroke-width="2" stroke-linecap="round" stroke-linejoin="round"/>
<path d="M13.75 8.75C13.75 10.1313 11.2312 11.25 8.125 11.25C5.01875 11.25 2.5 10.1313 2.5 8.75" stroke="#56AD37" stroke-width="2" stroke-linecap="round" stroke-linejoin="round"/>
<path d="M13.75 5C13.75 6.38125 11.2312 7.5 8.125 7.5C5.01875 7.5 2.5 6.38125 2.5 5C2.5 3.61875 5.01875 2.5 8.125 2.5C11.2312 2.5 13.75 3.61875 13.75 5Z" fill="#56AD37" stroke="#56AD37" stroke-width="2" stroke-linecap="round" stroke-linejoin="round"/>
<path d="M20 3.75H23.75C24.413 3.75 25.0489 4.01339 25.5178 4.48223C25.9866 4.95107 26.25 5.58696 26.25 6.25V10M10 26.25H6.25C5.58696 26.25 4.95107 25.9866 4.48223 25.5178C4.01339 25.0489 3.75 24.413 3.75 23.75V20" stroke="#56AD37" stroke-width="2" stroke-linecap="round" stroke-linejoin="round"/>
<path d="M21.875 21.25C23.6009 21.25 25 19.8509 25 18.125C25 16.3991 23.6009 15 21.875 15C20.1491 15 18.75 16.3991 18.75 18.125C18.75 19.8509 20.1491 21.25 21.875 21.25Z" fill="#56AD37" stroke="#56AD37" stroke-width="2" stroke-linecap="round" stroke-linejoin="round"/>
<path d="M27.5 27.5H16.25C16.25 26.7613 16.3955 26.0299 16.6782 25.3474C16.9609 24.6649 17.3752 24.0449 17.8975 23.5225C18.4199 23.0002 19.0399 22.5859 19.7224 22.3032C20.4049 22.0205 21.1363 21.875 21.875 21.875C22.6137 21.875 23.3451 22.0205 24.0276 22.3032C24.7101 22.5859 25.3301 23.0002 25.8525 23.5225C26.3748 24.0449 26.7891 24.6649 27.0718 25.3474C27.3545 26.0299 27.5 26.7613 27.5 27.5Z" fill="#56AD37" stroke="#56AD37" stroke-width="2" stroke-linecap="round" stroke-linejoin="round"/>
</svg>
